<?xml version="1.0" standalone="no"?>
<!DOCTYPE svg PUBLIC "-//W3C//DTD SVG 20010904//EN"
 "http://www.w3.org/TR/2001/REC-SVG-20010904/DTD/svg10.dtd">
<svg version="1.0" xmlns="http://www.w3.org/2000/svg"
 width="800.000000pt" height="300.000000pt" viewBox="0 0 1000.000000 300.000000"
 preserveAspectRatio="xMidYMid meet">

<g transform="translate(0.000000,300.000000) scale(0.100000,-0.100000)"
fill="#000000" stroke="none">
<path d="M5250 1985 c0 -504 2 -575 15 -575 13 0 15 71 15 575 0 504 -2 575
-15 575 -13 0 -15 -71 -15 -575z"/>
<path d="M5741 2383 c18 -32 37 -65 42 -73 7 -12 -17 -63 -92 -197 -56 -100
-101 -184 -101 -188 0 -3 32 -5 72 -3 l72 3 108 187 109 188 -43 70 -43 70
-78 0 -78 0 32 -57z"/>
<path d="M5971 2369 c33 -58 39 -76 31 -93 -5 -12 -50 -95 -101 -185 -50 -90
-91 -165 -91 -167 0 -2 33 -4 73 -4 l72 0 90 157 c50 86 99 171 109 189 l19
33 -42 70 -42 71 -79 0 -79 0 40 -71z"/>
<path d="M622 2310 c-128 -34 -261 -120 -298 -193 -24 -45 -21 -162 4 -220 25
-55 68 -82 118 -72 19 3 34 7 34 9 0 2 -14 37 -31 77 -17 40 -34 99 -36 130
-5 54 -4 58 28 92 40 43 140 100 221 128 61 20 182 26 193 9 3 -5 19 -10 36
-10 32 0 55 -21 75 -68 15 -37 0 -63 -54 -91 -39 -20 -260 -240 -326 -324 -58
-73 -97 -94 -190 -101 -107 -8 -146 -34 -132 -90 7 -30 55 -51 98 -41 18 3 58
9 88 12 31 3 67 14 83 25 25 18 37 19 140 13 105 -7 116 -6 181 19 37 14 83
26 100 26 27 0 38 8 74 57 31 42 43 52 47 40 3 -10 7 -24 10 -32 3 -10 18 -15
47 -15 37 0 45 -4 60 -30 48 -85 142 -92 347 -25 76 25 143 45 150 45 7 0 30
14 51 30 45 35 77 41 58 11 -17 -28 -73 -57 -148 -76 -53 -14 -113 -37 -128
-50 -9 -8 22 -47 48 -60 39 -20 67 -19 97 5 34 26 48 25 124 -9 65 -29 165
-51 232 -51 33 0 41 6 73 50 20 28 44 50 53 50 10 0 33 11 52 25 111 81 131
83 191 25 23 -22 48 -40 55 -40 11 0 105 36 201 77 7 3 12 -3 12 -17 0 -13 9
-38 21 -56 l21 -34 81 0 c149 0 249 43 358 151 54 53 77 87 120 176 49 100 58
112 97 132 23 11 47 21 52 21 22 0 192 154 210 190 l20 39 -26 30 c-29 34 -57
39 -100 16 -16 -8 -39 -15 -50 -15 -12 0 -31 -8 -42 -17 -22 -20 -164 -195
-202 -250 -19 -27 -48 -47 -118 -79 -50 -24 -121 -65 -157 -92 l-65 -49 -110
-8 c-109 -7 -110 -7 -116 -33 -3 -15 -8 -34 -10 -42 -2 -9 -23 -20 -46 -26
-24 -6 -58 -18 -76 -25 -31 -13 -34 -12 -53 11 -27 34 -17 77 26 117 22 20 35
41 35 57 0 22 5 26 30 26 40 0 39 25 -2 46 -58 30 -129 16 -269 -53 -97 -47
-135 -72 -172 -112 -45 -48 -47 -53 -47 -109 0 -41 5 -63 15 -72 8 -7 15 -16
15 -20 0 -12 -49 -30 -83 -30 -44 0 -132 43 -152 74 l-17 26 103 111 c111 120
148 144 230 155 55 7 135 51 146 80 3 8 12 14 20 14 9 0 21 7 27 14 6 8 40 30
76 49 75 40 103 77 104 144 1 34 -4 48 -19 59 -48 35 -118 29 -162 -15 -15
-15 -62 -48 -103 -72 -47 -28 -120 -87 -197 -161 -135 -129 -186 -168 -259
-197 -27 -10 -87 -37 -134 -58 -100 -47 -162 -68 -247 -84 -54 -10 -66 -9
-102 7 -52 23 -52 40 -2 47 43 5 55 11 177 81 70 39 84 52 98 87 16 39 16 43
0 60 -24 26 -80 42 -127 36 -43 -6 -187 -74 -187 -88 0 -4 -20 -22 -44 -38
-32 -22 -48 -42 -59 -73 -15 -46 -8 -44 -94 -35 -13 1 -23 3 -23 4 0 1 18 39
40 85 l41 83 -7 101 c-8 117 -3 124 80 124 50 0 63 20 27 40 -25 13 -136 13
-160 0 -15 -7 -24 -2 -50 30 -18 22 -56 52 -84 67 -71 37 -225 43 -335 13z
m2896 -97 c-2 -10 -13 -22 -25 -27 -11 -6 -28 -22 -37 -37 -23 -39 -72 -73
-79 -55 -9 24 17 60 72 98 61 42 74 46 69 21z m-1058 -51 c0 -10 -24 -30 -58
-50 -31 -18 -90 -53 -130 -79 -40 -25 -75 -43 -78 -40 -18 17 236 205 258 191
4 -3 8 -13 8 -22z m-1422 -164 c-8 -107 -40 -182 -108 -250 -76 -75 -165 -103
-269 -82 -45 9 -40 36 12 64 26 14 49 35 56 52 8 16 45 53 83 81 40 30 80 70
94 95 41 70 83 112 111 112 26 0 26 0 21 -72z m482 -77 c0 -6 -10 -21 -22 -35
-27 -30 -158 -90 -158 -73 0 20 14 35 70 76 51 36 110 53 110 32z m1614 -52
c-2 -21 -117 -163 -154 -189 -50 -35 -113 -60 -157 -60 l-43 0 0 44 c0 41 2
45 28 48 19 2 31 12 41 35 11 25 23 34 59 43 46 11 143 57 177 84 24 19 50 16
49 -5z m-791 -84 c-66 -74 -145 -130 -169 -121 -9 4 -15 8 -13 11 2 2 18 20
34 41 71 86 92 106 130 119 77 27 80 19 18 -50z"/>
<path d="M4585 2296 c-5 -3 -22 -7 -38 -10 -20 -5 -33 -19 -50 -52 -15 -31
-32 -50 -54 -59 -19 -8 -49 -37 -75 -74 -24 -33 -52 -63 -63 -67 -11 -4 -83
-71 -160 -149 -126 -129 -198 -185 -235 -185 -29 0 133 186 253 292 45 40 94
88 109 107 15 20 45 54 68 76 27 27 41 50 43 70 2 28 0 30 -37 33 -21 2 -51
-2 -67 -8 -36 -16 -88 -73 -123 -136 -18 -32 -48 -64 -86 -92 -33 -24 -86 -76
-118 -115 -82 -102 -206 -197 -314 -241 l-37 -16 41 81 c22 44 56 95 74 113
36 36 41 55 24 87 -15 27 -35 24 -69 -13 -29 -31 -31 -32 -31 -10 0 15 -9 26
-26 32 -61 24 -132 2 -198 -59 -28 -26 -79 -66 -112 -89 -67 -45 -114 -94
-114 -120 0 -25 51 -92 75 -98 12 -3 46 6 79 20 66 29 95 32 134 12 56 -28
109 -27 175 5 79 37 121 37 171 -1 70 -53 87 -51 167 24 38 36 74 66 79 66 5
0 24 19 41 43 29 40 62 66 84 66 6 1 5 -3 -2 -7 -18 -11 -73 -134 -73 -162 0
-47 13 -55 92 -54 60 0 85 6 142 33 l69 32 36 -34 c20 -19 51 -39 70 -46 55
-18 178 -13 241 10 30 11 74 25 98 30 52 13 183 98 207 135 25 39 31 97 11
113 -25 21 -93 8 -127 -25 -34 -33 -37 -56 -8 -75 20 -14 17 -17 -56 -63 -111
-70 -144 -80 -225 -66 -71 12 -143 40 -155 61 -13 20 38 56 100 70 63 14 89
38 132 123 14 28 34 63 44 78 37 51 22 68 -59 68 -40 0 -55 -7 -116 -54 -39
-29 -94 -68 -123 -85 -57 -35 -73 -65 -73 -137 0 -42 -1 -43 -56 -68 -58 -27
-118 -34 -129 -16 -4 6 12 38 34 71 23 34 41 67 41 75 0 15 60 74 76 74 5 0
19 19 31 43 11 23 52 77 92 121 39 43 71 82 71 86 0 5 21 18 46 30 44 22 87
80 71 96 -8 8 -97 15 -112 10z m85 -367 c0 -17 -76 -89 -94 -89 -33 0 -8 38
42 64 17 9 32 21 32 26 0 6 5 10 10 10 6 0 10 -5 10 -11z m-1050 -44 c0 -27
-43 -61 -106 -84 -33 -13 -76 -39 -99 -60 -36 -35 -75 -61 -89 -61 -3 0 -6 6
-6 14 0 25 52 78 95 97 22 10 52 34 68 53 37 47 137 77 137 41z"/>
<path d="M6742 2182 c5 -124 17 -148 85 -158 54 -8 90 7 110 46 18 36 18 210
-1 210 -10 0 -15 -23 -18 -99 -2 -62 -9 -105 -17 -115 -17 -20 -70 -21 -99 0
-20 14 -22 23 -22 115 0 94 -1 99 -21 99 -21 0 -21 -4 -17 -98z"/>
<path d="M7230 2265 c0 -8 7 -15 15 -15 8 0 15 7 15 15 0 8 -7 15 -15 15 -8 0
-15 -7 -15 -15z"/>
<path d="M8060 2265 c0 -8 7 -15 15 -15 8 0 15 7 15 15 0 8 -7 15 -15 15 -8 0
-15 -7 -15 -15z"/>
<path d="M8270 2241 l0 -39 -43 5 c-53 6 -77 -17 -84 -81 -5 -40 -2 -48 25
-76 32 -31 69 -39 91 -17 11 10 14 10 18 0 3 -7 9 -13 14 -13 5 0 9 58 9 130
0 109 -2 130 -15 130 -11 0 -15 -11 -15 -39z m-11 -65 c24 -28 24 -79 1 -109
-26 -32 -43 -34 -70 -7 -24 24 -26 77 -4 108 17 25 56 29 73 8z"/>
<path d="M8700 2241 l0 -39 -43 5 c-51 6 -76 -16 -84 -75 -8 -56 17 -99 62
-108 24 -4 41 -2 52 7 13 11 17 11 20 2 3 -7 9 -13 14 -13 5 0 9 58 9 130 0
109 -2 130 -15 130 -11 0 -15 -11 -15 -39z m-11 -65 c24 -28 24 -79 1 -109
-26 -32 -43 -34 -70 -7 -24 24 -26 77 -4 108 17 25 56 29 73 8z"/>
<path d="M6173 2177 c-17 -29 -33 -57 -35 -63 -2 -5 44 -96 100 -202 l104
-192 79 0 79 0 44 68 44 67 -84 5 -84 5 -101 175 c-55 96 -104 178 -108 182
-3 4 -21 -16 -38 -45z"/>
<path d="M7020 2114 c0 -72 3 -95 13 -92 7 3 14 32 17 78 6 84 20 102 64 82
25 -11 26 -16 26 -87 0 -60 3 -75 15 -75 22 0 21 137 -1 168 -17 25 -81 31
-102 10 -9 -9 -12 -9 -12 0 0 7 -4 12 -10 12 -6 0 -10 -39 -10 -96z"/>
<path d="M7230 2115 c0 -78 3 -95 15 -95 12 0 15 17 15 95 0 78 -3 95 -15 95
-12 0 -15 -17 -15 -95z"/>
<path d="M7310 2202 c0 -27 68 -177 80 -177 9 0 27 34 47 84 37 95 38 101 20
101 -7 0 -23 -31 -36 -70 -13 -38 -27 -70 -30 -70 -4 0 -17 32 -30 70 -14 40
-30 70 -38 70 -7 0 -13 -4 -13 -8z"/>
<path d="M7544 2202 c-20 -13 -34 -50 -34 -92 0 -83 89 -121 148 -63 33 33 14
44 -24 14 -33 -26 -49 -26 -74 -1 -39 39 -27 50 51 50 l72 0 -7 32 c-10 48
-33 68 -80 68 -23 0 -46 -4 -52 -8z m90 -28 c27 -26 18 -34 -39 -34 -59 0 -64
4 -38 32 20 22 56 23 77 2z"/>
<path d="M7730 2115 c0 -78 3 -95 15 -95 11 0 15 13 15 54 0 70 13 104 41 108
12 2 24 9 27 16 5 16 -40 16 -56 0 -9 -9 -12 -9 -12 0 0 7 -7 12 -15 12 -12 0
-15 -17 -15 -95z"/>
<path d="M7876 2197 c-11 -8 -17 -23 -14 -37 3 -24 22 -37 86 -61 40 -14 39
-38 -1 -52 -23 -7 -33 -5 -52 13 -35 33 -56 20 -23 -13 40 -40 103 -33 128 13
16 30 -2 52 -57 71 -35 11 -48 21 -48 35 0 25 62 34 71 10 3 -9 12 -16 20 -16
17 0 17 5 4 31 -13 23 -85 27 -114 6z"/>
<path d="M8060 2115 c0 -78 3 -95 15 -95 12 0 15 17 15 95 0 78 -3 95 -15 95
-12 0 -15 -17 -15 -95z"/>
<path d="M8375 2188 c-19 -28 -2 -37 24 -14 23 21 77 21 85 0 11 -28 7 -32
-36 -39 -65 -10 -90 -30 -86 -68 4 -40 43 -57 90 -39 21 8 36 8 42 2 21 -21
26 -7 26 69 0 97 -10 111 -80 111 -39 0 -52 -4 -65 -22z m115 -88 c0 -23 -33
-60 -54 -60 -28 0 -46 12 -46 30 0 22 12 30 54 41 46 11 46 11 46 -11z"/>
<path d="M6083 2028 c-5 -7 -23 -36 -38 -64 l-28 -50 106 -190 105 -189 83 0
82 0 38 60 c21 33 38 63 38 67 1 4 -36 8 -81 10 l-82 3 -99 170 c-54 94 -102
176 -106 183 -6 11 -9 11 -18 0z"/>
<path d="M5501 1788 c-35 -64 -39 -75 -27 -93 7 -11 25 -42 41 -68 l28 -49 38
70 39 69 112 6 c62 4 159 7 216 7 56 0 102 2 102 4 0 3 -16 32 -35 65 l-36 61
-219 0 -219 0 -40 -72z"/>
<path d="M7345 1843 c-53 -13 -73 -73 -36 -107 11 -10 40 -24 66 -32 57 -17
75 -30 75 -55 0 -23 -29 -39 -70 -39 -23 0 -40 9 -61 31 -33 36 -47 32 -33 -9
19 -53 145 -67 179 -19 20 29 19 70 -2 90 -10 8 -42 22 -72 29 -60 15 -82 38
-65 66 21 33 98 27 109 -8 7 -21 35 -28 35 -9 0 25 -23 49 -58 59 -20 5 -39 9
-42 9 -3 -1 -14 -4 -25 -6z"/>
<path d="M8335 1841 c-43 -19 -68 -59 -72 -113 -5 -63 9 -94 57 -126 73 -50
169 -6 184 84 9 49 -13 112 -46 137 -28 21 -94 31 -123 18z m109 -46 c22 -20
26 -32 26 -80 0 -46 -4 -60 -25 -80 -32 -33 -84 -33 -122 -1 -24 21 -28 31
-28 79 0 45 5 60 24 81 33 35 88 36 125 1z"/>
<path d="M6742 1713 l3 -128 78 -3 c64 -2 77 0 77 13 0 12 -13 15 -60 15 l-60
0 0 115 c0 109 -1 115 -20 115 -20 0 -20 -5 -18 -127z"/>
<path d="M7750 1710 c0 -109 2 -130 15 -130 13 0 15 21 15 130 0 109 -2 130
-15 130 -13 0 -15 -21 -15 -130z"/>
<path d="M7850 1709 c0 -100 3 -130 13 -127 8 3 13 41 15 131 2 109 0 127 -13
127 -13 0 -15 -20 -15 -131z"/>
<path d="M6965 1748 c-19 -28 -4 -35 27 -14 27 19 59 21 76 4 22 -22 12 -36
-30 -43 -53 -9 -84 -27 -91 -55 -12 -47 63 -78 110 -45 19 13 22 13 27 0 14
-38 26 -10 26 61 0 103 -7 114 -75 114 -44 0 -57 -4 -70 -22z m115 -72 c0 -21
-26 -65 -41 -69 -63 -17 -81 39 -19 60 35 12 60 16 60 9z"/>
<path d="M7558 1759 c-18 -10 -25 -39 -9 -39 5 0 14 7 21 16 9 10 26 14 49 12
28 -2 37 -8 39 -25 3 -18 -3 -23 -35 -28 -58 -9 -88 -27 -91 -57 -6 -49 58
-76 109 -45 17 10 23 10 26 0 12 -34 23 -5 23 63 0 100 -8 114 -68 114 -26 0
-55 -5 -64 -11z m102 -97 c0 -44 -64 -78 -89 -48 -20 24 -7 42 36 54 53 14 53
14 53 -6z"/>
<path d="M7951 1744 c-31 -39 -29 -107 4 -139 34 -35 87 -34 123 2 25 25 25
28 8 31 -10 2 -23 -3 -28 -12 -13 -24 -75 -21 -88 3 -19 36 -12 41 60 41 67 0
70 1 70 24 0 13 -9 35 -21 50 -16 21 -29 26 -64 26 -35 0 -48 -5 -64 -26z m95
-2 c6 -4 13 -15 17 -24 6 -16 0 -18 -48 -18 -57 0 -66 8 -39 34 16 17 51 21
70 8z"/>
<path d="M8577 1752 c-21 -23 -21 -32 -3 -32 8 0 17 7 20 16 4 11 17 14 43 12
30 -2 39 -8 41 -24 3 -19 -5 -23 -55 -35 -48 -12 -59 -19 -67 -41 -18 -53 48
-88 107 -57 16 9 22 9 25 0 2 -6 10 -11 18 -11 11 0 12 16 7 83 -3 45 -10 88
-16 95 -15 19 -101 15 -120 -6z m103 -96 c0 -41 -56 -68 -84 -41 -22 22 -10
42 32 53 53 14 52 14 52 -12z"/>
<path d="M8770 1765 c0 -3 12 -23 26 -45 25 -38 26 -41 10 -65 -52 -81 -50
-75 -32 -75 9 0 26 16 38 35 13 19 26 35 30 35 3 0 16 -16 28 -35 13 -21 30
-35 42 -35 18 0 16 5 -17 51 l-37 51 32 44 c27 38 29 44 13 44 -10 0 -27 -14
-37 -32 l-19 -31 -26 32 c-23 27 -51 42 -51 26z"/>
<path d="M8987 1752 c-21 -23 -21 -32 -2 -32 8 0 15 4 15 9 0 14 38 24 66 17
15 -4 24 -14 24 -25 0 -14 -13 -22 -57 -32 -48 -12 -59 -19 -67 -41 -19 -53
50 -88 105 -55 17 10 23 10 26 0 3 -7 10 -13 16 -13 15 0 10 159 -5 178 -16
19 -102 15 -121 -6z m101 -99 c-4 -36 -48 -59 -78 -43 -32 17 -20 43 25 56 56
17 57 17 53 -13z"/>
<path d="M9200 1750 c-15 -15 -20 -33 -20 -70 0 -62 31 -100 80 -100 30 0 80
37 80 60 0 17 -25 11 -38 -10 -14 -22 -61 -27 -80 -8 -7 7 -12 33 -12 58 0 25
5 51 12 58 20 20 64 14 81 -10 14 -21 16 -21 22 -5 12 28 -13 47 -61 47 -31 0
-50 -6 -64 -20z"/>
<path d="M9396 1754 c-9 -8 -16 -20 -16 -25 0 -15 27 -10 34 6 11 29 86 16 86
-16 0 -13 -10 -20 -37 -24 -55 -8 -88 -28 -91 -54 -7 -49 59 -79 109 -48 17
10 23 10 26 0 3 -7 10 -13 17 -13 14 0 9 144 -5 173 -13 23 -101 24 -123 1z
m102 -101 c-4 -36 -48 -59 -78 -43 -32 17 -20 43 25 56 56 17 57 17 53 -13z"/>
<path d="M5613 1596 l-36 -73 37 -67 c20 -36 39 -66 41 -66 2 0 21 31 41 69
l38 69 213 7 c117 4 213 10 213 14 -1 3 -16 31 -34 61 l-32 55 -222 3 -222 2
-37 -74z"/>
<path d="M9596 1634 c-34 -33 -2 -102 41 -91 16 4 15 5 -2 6 -60 3 -60 91 0
91 41 0 60 -49 33 -80 -11 -12 -10 -12 5 -1 36 28 10 91 -38 91 -13 0 -31 -7
-39 -16z"/>
<path d="M9610 1592 c0 -19 3 -23 9 -13 5 7 14 10 20 7 18 -11 13 -2 -9 17
-19 16 -20 16 -20 -11z"/>
</g>
</svg>
